<?xml version="1.0" standalone="no"?>
<!DOCTYPE svg PUBLIC "-//W3C//DTD SVG 20010904//EN"
 "http://www.w3.org/TR/2001/REC-SVG-20010904/DTD/svg10.dtd">
<svg version="1.0" xmlns="http://www.w3.org/2000/svg"
 width="200.000000pt" height="180.000000pt" viewBox="0 0 200.000000 180.000000"
 preserveAspectRatio="xMidYMid meet">
<metadata>
Created by potrace 1.16, written by Peter Selinger 2001-2019
</metadata>
<g transform="translate(0.000000,180.000000) scale(0.033389,-0.047619)"
fill="#000000" stroke="none">
<path d="M2344 3139 c-2 -4 -12 -8 -22 -7 -16 0 -73 -9 -120 -18 -36 -7 -62
-40 -62 -79 0 -29 5 -37 25 -45 14 -5 31 -24 40 -42 l14 -33 -2 35 c-2 32 0
35 23 32 14 -1 52 -3 85 -5 33 -1 65 -6 72 -10 19 -12 66 69 58 100 -11 47
-34 71 -71 75 -19 2 -37 1 -40 -3z"/>
<path d="M2152 2638 c60 -51 87 -170 69 -301 -26 -189 -116 -343 -142 -244 -4
16 1 91 12 175 22 169 23 217 8 261 -37 104 -177 46 -245 -102 -104 -228 -41
-536 138 -678 82 -65 144 -47 217 62 82 122 134 307 135 479 1 120 -15 205
-53 281 -26 53 -27 54 -68 51 -22 -2 -44 1 -48 7 -3 6 -16 16 -28 22 -17 8
-16 6 5 -13z"/>
<path d="M2666 2609 c57 -63 123 -174 272 -460 l60 -117 7 44 c4 28 14 49 28
59 12 8 16 15 10 15 -18 0 -130 139 -184 228 -62 102 -148 210 -191 241 l-33
24 31 -34z"/>
<path d="M3969 1776 c-3 -3 -23 -6 -44 -7 -22 -1 -47 -6 -56 -10 -9 -5 -27
-10 -40 -13 -13 -2 -91 -33 -174 -69 -221 -94 -351 -134 -594 -181 -89 -18
-122 -20 -151 -12 -36 9 -41 7 -136 -56 -106 -71 -244 -183 -244 -198 0 -5 42
-47 94 -93 126 -112 156 -122 366 -122 138 0 166 3 253 28 54 15 142 45 195
68 157 66 177 70 397 76 168 4 222 1 335 -16 127 -19 175 -27 175 -31 0 -1 11
-4 25 -7 39 -7 55 -11 55 -13 0 -2 38 -11 53 -12 6 -1 12 -4 12 -8 0 -4 7 -7
15 -8 8 -1 22 -3 30 -4 8 -1 15 -5 15 -10 0 -4 3 -7 8 -6 9 2 43 -13 147 -64
100 -50 104 -52 198 -116 77 -53 79 -53 100 -35 56 47 55 70 -2 118 -20 16
-59 52 -87 80 -28 27 -73 68 -99 90 -27 22 -59 50 -71 63 -12 12 -24 22 -28
22 -3 0 -14 8 -24 18 -27 25 -55 47 -67 52 -5 2 -19 12 -30 23 -11 10 -45 35
-75 54 -30 20 -74 49 -97 64 -23 16 -43 29 -46 29 -3 0 -33 16 -67 35 -34 19
-68 35 -76 35 -17 0 -19 20 -1 21 50 2 91 10 97 18 3 6 32 12 63 13 31 1 57 5
57 8 0 3 8 6 18 7 43 3 62 8 62 16 0 4 4 6 8 3 4 -2 22 2 39 11 88 42 24 102
-96 89 -31 -3 -63 -7 -71 -7 -8 -1 -34 -5 -58 -10 -31 -7 -51 -5 -77 5 -19 8
-35 13 -35 11 0 -2 -18 2 -39 10 -22 7 -41 11 -44 9 -2 -3 -17 0 -33 6 -16 7
-45 13 -64 16 -19 2 -46 6 -60 9 -14 3 -28 3 -31 1z"/>
<path d="M5308 994 c-16 -8 -28 -19 -28 -24 0 -6 -6 -10 -14 -10 -8 0 -16 -3
-18 -7 -5 -13 -72 -60 -95 -67 -13 -4 -23 -12 -23 -17 0 -5 -11 -9 -25 -9 -27
0 -32 -9 -14 -27 15 -15 3 -33 -22 -33 -15 0 -19 -6 -17 -30 2 -29 29 -70 46
-70 4 0 32 23 62 51 30 28 76 69 102 91 26 22 53 50 60 63 7 12 21 37 31 54
28 49 8 64 -45 35z"/>
</g>
</svg>
