<?xml version="1.0" standalone="no"?>
<!DOCTYPE svg PUBLIC "-//W3C//DTD SVG 20010904//EN"
 "http://www.w3.org/TR/2001/REC-SVG-20010904/DTD/svg10.dtd">
<svg version="1.0" xmlns="http://www.w3.org/2000/svg"
 width="500.000000pt" height="448.000000pt" viewBox="0 0 500.000000 448.000000"
 preserveAspectRatio="xMidYMid meet">
<metadata>
Created by potrace 1.16, written by Peter Selinger 2001-2019
</metadata>
<g transform="translate(0.000000,448.000000) scale(0.087108,-0.093333)"
fill="#000000" stroke="none">
<path d="M1714 3898 c-3 -5 -12 -7 -19 -4 -7 2 -30 -10 -52 -29 l-38 -33 0
-88 c0 -93 4 -125 18 -135 5 -3 9 -12 11 -20 1 -8 9 -27 18 -44 8 -16 18 -47
21 -69 7 -45 34 -89 48 -80 7 4 7 10 1 16 -6 6 -1 18 14 33 13 13 24 35 24 47
0 34 -26 67 -49 61 -26 -7 -57 37 -70 98 -17 80 -18 79 48 79 72 0 91 -6 91
-31 0 -10 4 -19 9 -19 5 0 7 -27 4 -60 -6 -58 -5 -61 43 -131 121 -177 347
-271 501 -207 15 6 34 12 41 14 35 7 130 102 160 159 43 83 27 181 -40 241
-35 32 -105 74 -112 67 -3 -4 -6 -1 -6 5 0 8 -29 10 -97 7 -133 -6 -157 0
-357 96 -21 10 -43 16 -47 13 -5 -3 -9 -1 -9 4 0 5 -12 9 -27 10 -16 0 -50 2
-76 5 -26 2 -50 0 -53 -5z"/>
<path d="M1561 3020 c-1 -78 -27 -175 -67 -250 -39 -75 -40 -77 -18 -60 17 12
17 12 6 0 -7 -8 -17 -15 -23 -15 -5 0 -33 -25 -62 -56 -28 -31 -74 -71 -102
-88 -27 -17 -47 -31 -42 -31 17 0 95 55 146 104 37 34 49 42 38 24 -10 -16
-14 -28 -10 -28 4 0 -2 -6 -12 -14 -10 -7 -19 -20 -21 -28 -3 -25 -36 -88 -45
-88 -5 0 -6 -6 -3 -14 4 -9 -7 -17 -33 -24 -37 -11 -37 -11 12 -5 106 12 302
100 290 131 -3 8 -17 59 -32 113 -20 76 -24 104 -16 121 8 18 53 39 204 97
107 40 199 77 204 83 6 6 1 6 -15 0 -253 -98 -316 -122 -321 -122 -16 0 -64
111 -70 160 l-6 55 -2 -65z"/>
<path d="M1611 2097 c-10 -23 -37 -96 -61 -162 -24 -66 -46 -122 -49 -125 -3
-3 -7 -12 -7 -20 -1 -12 -66 -196 -91 -260 -4 -8 -7 -17 -8 -20 -20 -68 -130
-396 -134 -400 -3 -3 -6 -9 -6 -15 0 -11 -23 -100 -32 -125 -4 -8 -8 -24 -10
-34 -2 -11 -8 -25 -13 -31 -5 -7 -7 -14 -5 -17 3 -3 1 -17 -4 -31 -9 -24 -6
-29 50 -66 57 -38 79 -44 79 -20 0 6 17 41 39 77 80 138 113 205 118 235 6 37
65 160 126 259 55 91 51 84 135 230 39 70 72 130 72 132 0 3 22 44 49 90 44
77 143 196 162 196 8 0 93 -150 179 -318 71 -138 137 -216 208 -247 40 -17 52
-17 181 -6 76 7 158 10 182 7 24 -3 81 -8 126 -11 l82 -6 16 32 c11 21 14 43
10 68 -8 47 -40 101 -60 101 -8 0 -15 4 -15 10 0 5 -3 9 -7 8 -5 -1 -33 4 -63
12 -30 7 -66 15 -80 17 -14 2 -38 6 -55 9 -16 3 -50 5 -75 4 -25 0 -59 2 -77
5 -28 5 -32 11 -44 58 -7 29 -13 72 -14 97 -2 25 -5 52 -8 60 -4 8 -8 30 -9
48 -3 31 -10 38 -98 88 -154 88 -235 102 -379 64 -41 -11 -102 -20 -135 -20
-74 0 -179 24 -224 50 l-33 20 -18 -43z"/>
</g>
</svg>
